:FULLY-SPECIFIED
:FORCE-ALL-JOINTS-BE-3DOF
:DEGREES
2752
root -5.58988 13.9563 -28.4156 1242.12 -65.2276 -161.155
lfemur -59.6855 43.1502 -6.34356
ltibia 68.2884 0 0
lfoot -2.58971 -1.50751 0
ltoes -31.4069 0 0
rfemur -30.8559 -18.6515 21.6281
rtibia 82.0068 0 0
rfoot -35.3247 -24.8291 0
rtoes -14.6486 0 0
lowerback 15.665 5.82187 0.500459
upperback -4.05861 8.11703 1.4844
thorax -13.4762 3.80344 -0.823727
lowerneck -2.39551 9.61616 2.06852
upperneck 7.5677 12.575 1.98633
head 2.82378 6.34798 0.689085
lclavicle 2.53661e-14 -5.73175e-15 0
lhumerus 3.55182 10.7716 83.941
lradius 94.7305 0 0
lwrist -19.257 0 0
lhand -39.7938 387.631 0
lfingers 7.12502 0 0
lthumb -12.769 -662.779 0
rclavicle 2.53661e-14 -5.73175e-15 0
rhumerus -57.986 50.7618 -110.242
rradius 114.124 0 0
rwrist -84.6084 0 0
rhand 4.7201 -386.905 0
rfingers 7.12502 0 0
rthumb 30.103 305.526 0
2753
root -5.60486 13.9443 -28.425 1242.16 -65.2399 -161.184
lfemur -59.7863 43.2365 -6.34862
ltibia 68.4849 0 0
lfoot -2.66346 -1.59893 0
ltoes -31.432 0 0
rfemur -30.8409 -18.6885 21.5975
rtibia 82.1284 0 0
rfoot -35.4612 -24.8595 0
rtoes -14.6755 0 0
lowerback 15.6288 5.82135 0.480109
upperback -4.07617 8.11225 1.48397
thorax -13.4778 3.80316 -0.809087
lowerneck -2.39342 9.61525 2.07148
upperneck 7.59747 12.5729 1.98839
head 2.83362 6.34702 0.690282
lclavicle 2.59139e-14 -5.5301e-15 0
lhumerus 3.54962 10.8114 83.9378
lradius 94.7026 0 0
lwrist -19.296 0 0
lhand -39.7893 387.635 0
lfingers 7.12502 0 0
lthumb -12.7646 -662.775 0
rclavicle 2.59139e-14 -5.5301e-15 0
rhumerus -58.0326 50.7002 -110.275
rradius 114.134 0 0
rwrist -84.5804 0 0
rhand 4.76488 -386.877 0
rfingers 7.12502 0 0
rthumb 30.1457 305.562 0
2754
root -5.61877 13.9329 -28.4338 1242.2 -65.2506 -161.213
lfemur -59.8786 43.318 -6.35166
ltibia 68.6697 0 0
lfoot -2.73401 -1.68405 0
ltoes -31.4591 0 0
rfemur -30.8264 -18.7225 21.5681
rtibia 82.2444 0 0
rfoot -35.5905 -24.8879 0
rtoes -14.6989 0 0
lowerback 15.5941 5.82089 0.460539
upperback -4.09275 8.10774 1.48382
thorax -13.4791 3.80294 -0.794713
lowerneck -2.39178 9.61442 2.07435
upperneck 7.626 12.5709 1.99006
head 2.84314 6.34614 0.691354
lclavicle 2.6418e-14 -5.31406e-15 0
lhumerus 3.5446 10.8486 83.9345
lradius 94.678 0 0
lwrist -19.3307 0 0
lhand -39.7851 387.639 0
lfingers 7.12502 0 0
lthumb -12.7605 -662.77 0
rclavicle 2.6418e-14 -5.31406e-15 0
rhumerus -58.0743 50.6429 -110.305
rradius 114.142 0 0
rwrist -84.5558 0 0
rhand 4.80584 -386.851 0
rfingers 7.12502 0 0
rthumb 30.1848 305.595 0
2755
root -5.63168 13.9221 -28.4422 1242.24 -65.26 -161.243
lfemur -59.9629 43.3949 -6.35278
ltibia 68.8435 0 0
lfoot -2.80152 -1.76326 0
ltoes -31.4882 0 0
rfemur -30.8126 -18.7537 21.5398
rtibia 82.3553 0 0
rfoot -35.713 -24.9143 0
rtoes -14.7191 0 0
lowerback 15.5606 5.82048 0.441732
upperback -4.10838 8.10347 1.48394
thorax -13.4799 3.80279 -0.780603
lowerneck -2.39057 9.61368 2.07713
upperneck 7.65337 12.5691 1.99134
head 2.85237 6.34533 0.692309
lclavicle 2.68778e-14 -5.08528e-15 0
lhumerus 3.53698 10.8835 83.9312
lradius 94.6565 0 0
lwrist -19.3614 0 0
lhand -39.7811 387.645 0
lfingers 7.12502 0 0
lthumb -12.7567 -662.764 0
rclavicle 2.68778e-14 -5.08528e-15 0
rhumerus -58.1116 50.5897 -110.332
rradius 114.149 0 0
rwrist -84.5343 0 0
rhand 4.84325 -386.826 0
rfingers 7.12502 0 0
rthumb 30.2206 305.626 0
2756
root -5.64364 13.9118 -28.45 1242.28 -65.268 -161.273
lfemur -60.0398 43.4674 -6.35208
ltibia 69.0069 0 0
lfoot -2.86612 -1.83697 0
ltoes -31.5188 0 0
rfemur -30.7992 -18.7821 21.5126
rtibia 82.4614 0 0
rfoot -35.8292 -24.939 0
rtoes -14.736 0 0
lowerback 15.5284 5.82013 0.423669
upperback -4.12313 8.09944 1.48432
thorax -13.4804 3.8027 -0.766755
lowerneck -2.38979 9.61302 2.07983
upperneck 7.67967 12.5675 1.99227
head 2.86133 6.34459 0.693155
lclavicle 2.72925e-14 -4.84543e-15 0
lhumerus 3.52696 10.9161 83.9278
lradius 94.638 0 0
lwrist -19.3883 0 0
lhand -39.7773 387.651 0
lfingers 7.12502 0 0
lthumb -12.7531 -662.758 0
rclavicle 2.72925e-14 -4.84543e-15 0
rhumerus -58.1445 50.5404 -110.356
rradius 114.155 0 0
rwrist -84.5159 0 0
rhand 4.87737 -386.803 0
rfingers 7.12502 0 0
rthumb 30.2531 305.655 0
2757
root -5.65471 13.9019 -28.4574 1242.31 -65.2749 -161.303
lfemur -60.1097 43.5359 -6.34966
ltibia 69.1607 0 0
lfoot -2.92797 -1.90557 0
ltoes -31.5507 0 0
rfemur -30.7864 -18.808 21.4864
rtibia 82.5631 0 0
rfoot -35.9395 -24.9621 0
rtoes -14.7498 0 0
lowerback 15.4973 5.81982 0.406332
upperback -4.13702 8.09563 1.48495
thorax -13.4806 3.80266 -0.753169
lowerneck -2.38939 9.61243 2.08245
upperneck 7.70499 12.566 1.99287
head 2.87005 6.34392 0.693899
lclavicle 2.76618e-14 -4.59616e-15 0
lhumerus 3.51478 10.9467 83.9244
lradius 94.6222 0 0
lwrist -19.4115 0 0
lhand -39.7738 387.657 0
lfingers 7.12502 0 0
lthumb -12.7497 -662.751 0
rclavicle 2.76618e-14 -4.59616e-15 0
rhumerus -58.1735 50.4948 -110.378
rradius 114.159 0 0
rwrist -84.5003 0 0
rhand 4.90847 -386.78 0
rfingers 7.12502 0 0
rthumb 30.2828 305.683 0
2758
root -5.66494 13.8925 -28.4644 1242.35 -65.2807 -161.333
lfemur -60.1733 43.6005 -6.34562
ltibia 69.3056 0 0
lfoot -2.98719 -1.96946 0
ltoes -31.5836 0 0
rfemur -30.7742 -18.8314 21.4613
rtibia 82.6607 0 0
rfoot -36.0442 -24.9839 0
rtoes -14.7606 0 0
lowerback 15.4675 5.81955 0.389702
upperback -4.15011 8.09204 1.48581
thorax -13.4805 3.80267 -0.739845
lowerneck -2.38937 9.61192 2.085
upperneck 7.72941 12.5646 1.99316
head 2.87854 6.34331 0.69455
lclavicle 2.79849e-14 -4.33914e-15 0
lhumerus 3.50064 10.9753 83.921
lradius 94.609 0 0
lwrist -19.4312 0 0
lhand -39.7705 387.665 0
lfingers 7.12502 0 0
lthumb -12.7465 -662.744 0
rclavicle 2.79849e-14 -4.33914e-15 0
rhumerus -58.1986 50.4529 -110.398
rradius 114.162 0 0
rwrist -84.4874 0 0
rhand 4.93681 -386.759 0
rfingers 7.12502 0 0
rthumb 30.3099 305.709 0
